<svg preserveAspectRatio="none" overflow="visible" style="display: block;" width="180" height="185.819" viewBox="0 0 180 185.819" fill="none" xmlns="http://www.w3.org/2000/svg">
<g id="Group">
<path id="Vector" d="M62 40.96C62 34.8908 57.0751 29.9707 51 29.9707C44.9249 29.9707 40 34.8908 40 40.96V144.859C40 150.928 44.9249 155.848 51 155.848C57.0751 155.848 62 150.928 62 144.859V40.96Z" fill="#12334A"/>
<path id="Vector_2" d="M104 11.9883C104 5.36734 98.6274 0 92 0C85.3726 0 80 5.36734 80 11.9883V173.83C80 180.451 85.3726 185.819 92 185.819C98.6274 185.819 104 180.451 104 173.83V11.9883Z" fill="#12334A"/>
<path id="Vector_3" d="M169 79.922H11C4.92487 79.922 0 84.842 0 90.9112C0 96.9804 4.92487 101.9 11 101.9H169C175.075 101.9 180 96.9804 180 90.9112C180 84.842 175.075 79.922 169 79.922Z" fill="#12334A"/>
<path id="Vector_4" d="M152 40.96C152 34.8908 147.075 29.9707 141 29.9707C134.925 29.9707 130 34.8908 130 40.96V144.859C130 150.928 134.925 155.848 141 155.848C147.075 155.848 152 150.928 152 144.859V40.96Z" fill="#12334A"/>
</g>
</svg>
